<svg version="1.1" xmlns="http://www.w3.org/2000/svg" xmlns:xlink="http://www.w3.org/1999/xlink" width="848" height="1057"><defs></defs><g><g transform="translate(-486,-82) scale(1,1)"><path fill="#C0C0C0" stroke="none" d="M 914 108.5 C 914 103.2532944 918.2532944 99 923.5 99 C 928.7467056 99 933 103.2532944 933 108.5 C 933 113.7467056 928.7467056 118 923.5 118 C 918.2532944 118 914 113.7467056 914 108.5 Z" opacity="0.2"></path></g><g transform="translate(-486,-82) scale(1,1)"><path fill="#000000" stroke="none" d="M 907 101.5 C 907 96.2532944 911.2532944 92 916.5 92 C 921.7467056 92 926 96.2532944 926 101.5 C 926 106.7467056 921.7467056 111 916.5 111 C 911.2532944 111 907 106.7467056 907 101.5 Z"></path></g><g transform="translate(-486,-82) scale(1,1)"><path fill="#C0C0C0" stroke="none" d="M 892 231 L 955 231 Q 958 231 958 234 L 958 233 Q 958 236 955 236 L 892 236 Q 889 236 889 233 L 889 234 Q 889 231 892 231 Z" opacity="0.2"></path></g><g transform="translate(-486,-82) scale(1,1)"><path fill="#000000" stroke="none" d="M 885 224 L 948 224 Q 951 224 951 227 L 951 227 Q 951 230 948 230 L 885 230 Q 882 230 882 227 L 882 227 Q 882 224 885 224 Z"></path></g><g transform="translate(-486,-82) scale(1,1)"><rect fill="#00ff00" stroke="none" x="798" y="320" width="284" height="21"></rect></g><g transform="translate(-486,-82) scale(1,1)"><path fill="none" stroke="#000000" d="M 798 320 L 1082 320 L 1082 341 L 798 341 L 798 320 Z Z" stroke-miterlimit="10" stroke-width="2"></path></g><g transform="translate(-486,-82) scale(1,1)"><path fill="none" stroke="#000000" d="M 798 872 L 798 320 L 1082 320 L 1082 872" stroke-miterlimit="10" stroke-width="2"></path></g><g transform="translate(-486,-82) scale(1,1)"><g><path fill="none" stroke="none"></path><text fill="#000000" stroke="none" font-family="Arial" font-size="13px" font-style="normal" font-weight="normal" text-decoration="none" x="912.5" y="337">Algorithm</text></g></g><g transform="translate(-486,-82) scale(1,1)"><rect fill="#6dceff" stroke="none" x="496" y="320" width="168" height="21"></rect></g><g transform="translate(-486,-82) scale(1,1)"><path fill="none" stroke="#000000" d="M 496 320 L 664 320 L 664 341 L 496 341 L 496 320 Z Z" stroke-miterlimit="10" stroke-width="2"></path></g><g transform="translate(-486,-82) scale(1,1)"><path fill="none" stroke="#000000" d="M 496 872 L 496 320 L 664 320 L 664 872" stroke-miterlimit="10" stroke-width="2"></path></g><g transform="translate(-486,-82) scale(1,1)"><g><path fill="none" stroke="none"></path><text fill="#000000" stroke="none" font-family="Arial" font-size="13px" font-style="normal" font-weight="normal" text-decoration="none" x="552.5" y="337">Simulator</text></g></g><g transform="translate(-486,-82) scale(1,1)"><rect fill="#ff5656" stroke="none" x="1132" y="320" width="192" height="21"></rect></g><g transform="translate(-486,-82) scale(1,1)"><path fill="none" stroke="#000000" d="M 1132 320 L 1324 320 L 1324 341 L 1132 341 L 1132 320 Z Z" stroke-miterlimit="10" stroke-width="2"></path></g><g transform="translate(-486,-82) scale(1,1)"><path fill="none" stroke="#000000" d="M 1132 872 L 1132 320 L 1324 320 L 1324 872" stroke-miterlimit="10" stroke-width="2"></path></g><g transform="translate(-486,-82) scale(1,1)"><g><path fill="none" stroke="none"></path><text fill="#000000" stroke="none" font-family="Arial" font-size="13px" font-style="normal" font-weight="normal" text-decoration="none" x="1210.5" y="337">Model</text></g></g><g transform="translate(-486,-82) scale(1,1)"><path fill="none" stroke="#000000" d="M 916 112 L 916 223" stroke-miterlimit="10"></path></g><g transform="translate(-486,-82) scale(1,1)"><path fill="none" stroke="#000000" d="M 911.790482243984 212.83732514237585 L 916 223 L 920.209517756016 212.83732514237585" stroke-miterlimit="10"></path></g><g transform="translate(-486,-82) scale(1,1)"><g><path fill="none" stroke="none"></path><text fill="#000000" stroke="none" font-family="Arial" font-size="13px" font-style="normal" font-weight="normal" text-decoration="none" x="879" y="173">Simulation begins</text></g></g><g transform="translate(-486,-82) scale(1,1)"><path fill="#C0C0C0" stroke="none" d="M 840 383 L 1054 383 Q 1064 383 1064 393 L 1064 420 Q 1064 430 1054 430 L 840 430 Q 830 430 830 420 L 830 393 Q 830 383 840 383 Z" opacity="0.2"></path></g><g transform="translate(-486,-82) scale(1,1)"><path fill="#ffffff" stroke="none" d="M 833 376 L 1047 376 Q 1057 376 1057 386 L 1057 413 Q 1057 423 1047 423 L 833 423 Q 823 423 823 413 L 823 386 Q 823 376 833 376 Z"></path></g><g transform="translate(-486,-82) scale(1,1)"><path fill="none" stroke="#000000" d="M 833 376 L 1047 376 Q 1057 376 1057 386 L 1057 413 Q 1057 423 1047 423 L 833 423 Q 823 423 823 413 L 823 386 Q 823 376 833 376 Z" stroke-miterlimit="10"></path></g><g transform="translate(-486,-82) scale(1,1)"><g><path fill="none" stroke="none"></path><text fill="#000000" stroke="none" font-family="Arial" font-size="13px" font-style="normal" font-weight="bold" text-decoration="none" x="835.5" y="395.5">Preprocessing (pseudotree creation)</text></g></g><g transform="translate(-486,-82) scale(1,1)"><path fill="none" stroke="#000000" d="M 917 230 L 937 375" stroke-miterlimit="10"></path></g><g transform="translate(-486,-82) scale(1,1)"><path fill="none" stroke="#000000" d="M 931.4413613264693 365.50781710579025 L 937 375 L 939.7814357925392 364.3574620070219" stroke-miterlimit="10"></path></g><g transform="translate(-486,-82) scale(1,1)"><g><path fill="none" stroke="none"></path><text fill="#000000" stroke="none" font-family="Arial" font-size="13px" font-style="normal" font-weight="normal" text-decoration="none" x="889" y="306">Algorithm Spawns</text></g></g><g transform="translate(-486,-82) scale(1,1)"><path fill="#C0C0C0" stroke="none" d="M 511 446 L 604 446 L 604 486 L 511 486 L 521.25 466.5" opacity="0.2"></path></g><g transform="translate(-486,-82) scale(1,1)"><path fill="#ffffff" stroke="none" d="M 504 439 L 597 439 L 597 479 L 504 479 L 514.25 459.5"></path></g><g transform="translate(-486,-82) scale(1,1)"><path fill="none" stroke="#000000" d="M 504 439 L 597 439 L 597 479 L 504 479 L 514.25 459.5 L 504 439" stroke-miterlimit="10"></path></g><g transform="translate(-486,-82) scale(1,1)"><g><path fill="none" stroke="none"></path><text fill="#000000" stroke="none" font-family="Arial" font-size="13px" font-style="normal" font-weight="bold" text-decoration="none" x="509.5" y="458.5">Accept Ready</text></g></g><g transform="translate(-486,-82) scale(1,1)"><path fill="#C0C0C0" stroke="none" d="M 918 451 L 918 491 L 966.75 491 L 977 471.5 L 966.75 451" opacity="0.2"></path></g><g transform="translate(-486,-82) scale(1,1)"><path fill="#ffffff" stroke="none" d="M 911 444 L 911 484 L 959.75 484 L 970 464.5 L 959.75 444"></path></g><g transform="translate(-486,-82) scale(1,1)"><path fill="none" stroke="#000000" d="M 911 444 L 911 484 L 959.75 484 L 970 464.5 L 959.75 444 L 911 444" stroke-miterlimit="10"></path></g><g transform="translate(-486,-82) scale(1,1)"><g><path fill="none" stroke="none"></path><text fill="#000000" stroke="none" font-family="Arial" font-size="13px" font-style="normal" font-weight="bold" text-decoration="none" x="922" y="463.5">Ready</text></g></g><g transform="translate(-486,-82) scale(1,1)"><path fill="none" stroke="#000000" d="M 940 424 L 940 443" stroke-miterlimit="10"></path></g><g transform="translate(-486,-82) scale(1,1)"><path fill="none" stroke="#000000" d="M 935.790482243984 432.83732514237585 L 940 443 L 944.209517756016 432.83732514237585" stroke-miterlimit="10"></path></g><g transform="translate(-486,-82) scale(1,1)"><path fill="none" stroke="#000000" d="M 910 464 L 598 460" stroke-miterlimit="10"></path></g><g transform="translate(-486,-82) scale(1,1)"><path fill="none" stroke="#000000" d="M 608.2158035054036 455.92110814816283 L 598 460 L 608.1078760221008 464.33945184577954" stroke-miterlimit="10"></path></g><g transform="translate(-486,-82) scale(1,1)"><g><path fill="none" stroke="none"></path><text fill="#000000" stroke="none" font-family="Arial" font-size="13px" font-style="normal" font-weight="normal" text-decoration="none" x="698" y="483">Request more data</text></g></g><g transform="translate(-486,-82) scale(1,1)"><path fill="none" stroke="#000000" d="M 1192 447 L 1081 456" stroke-miterlimit="10"></path></g><g transform="translate(-486,-82) scale(1,1)"><path fill="none" stroke="#000000" d="M 1090.7892374026 450.98294597641853 L 1081 456 L 1091.4696290716772 459.3744432283698" stroke-miterlimit="10"></path></g><g transform="translate(-486,-82) scale(1,1)"><path fill="#C0C0C0" stroke="none" d="M 1200 431 L 1200 471 L 1264.75 471 L 1275 451.5 L 1264.75 431" opacity="0.2"></path></g><g transform="translate(-486,-82) scale(1,1)"><path fill="#ffffff" stroke="none" d="M 1193 424 L 1193 464 L 1257.75 464 L 1268 444.5 L 1257.75 424"></path></g><g transform="translate(-486,-82) scale(1,1)"><path fill="none" stroke="#000000" d="M 1193 424 L 1193 464 L 1257.75 464 L 1268 444.5 L 1257.75 424 L 1193 424" stroke-miterlimit="10"></path></g><g transform="translate(-486,-82) scale(1,1)"><g><path fill="none" stroke="none"></path><text fill="#000000" stroke="none" font-family="Arial" font-size="13px" font-style="normal" font-weight="bold" text-decoration="none" x="1198" y="443.5">Read Stats</text></g></g><g transform="translate(-486,-82) scale(1,1)"><path fill="#C0C0C0" stroke="none" d="M 1198 363 L 1277 363 Q 1287 363 1287 373 L 1287 393 Q 1287 403 1277 403 L 1198 403 Q 1188 403 1188 393 L 1188 373 Q 1188 363 1198 363 Z" opacity="0.2"></path></g><g transform="translate(-486,-82) scale(1,1)"><path fill="#ffffff" stroke="none" d="M 1191 356 L 1270 356 Q 1280 356 1280 366 L 1280 386 Q 1280 396 1270 396 L 1191 396 Q 1181 396 1181 386 L 1181 366 Q 1181 356 1191 356 Z"></path></g><g transform="translate(-486,-82) scale(1,1)"><path fill="none" stroke="#000000" d="M 1191 356 L 1270 356 Q 1280 356 1280 366 L 1280 386 Q 1280 396 1270 396 L 1191 396 Q 1181 396 1181 386 L 1181 366 Q 1181 356 1191 356 Z" stroke-miterlimit="10"></path></g><g transform="translate(-486,-82) scale(1,1)"><g><path fill="none" stroke="none"></path><text fill="#000000" stroke="none" font-family="Arial" font-size="13px" font-style="normal" font-weight="bold" text-decoration="none" x="1189" y="375.5">Preprocessing</text></g></g><g transform="translate(-486,-82) scale(1,1)"><path fill="none" stroke="#000000" d="M 907 230 L 614 355" stroke-miterlimit="10"></path></g><g transform="translate(-486,-82) scale(1,1)"><path fill="none" stroke="#000000" d="M 621.6957314453365 347.1402469808996 L 614 355 L 624.9993885494454 354.88401923293065" stroke-miterlimit="10"></path></g><g transform="translate(-486,-82) scale(1,1)"><path fill="none" stroke="#000000" d="M 924 230 L 1186 355" stroke-miterlimit="10"></path></g><g transform="translate(-486,-82) scale(1,1)"><path fill="none" stroke="#000000" d="M 1175.0151331873687 354.42319751322367 L 1186 355 L 1178.6403871361622 346.8246652365525" stroke-miterlimit="10"></path></g><g transform="translate(-486,-82) scale(1,1)"><path fill="#C0C0C0" stroke="none" d="M 896 615 L 999 615 Q 1009 615 1009 625 L 1009 652 Q 1009 662 999 662 L 896 662 Q 886 662 886 652 L 886 625 Q 886 615 896 615 Z" opacity="0.2"></path></g><g transform="translate(-486,-82) scale(1,1)"><path fill="#ffffff" stroke="none" d="M 889 608 L 992 608 Q 1002 608 1002 618 L 1002 645 Q 1002 655 992 655 L 889 655 Q 879 655 879 645 L 879 618 Q 879 608 889 608 Z"></path></g><g transform="translate(-486,-82) scale(1,1)"><path fill="none" stroke="#000000" d="M 889 608 L 992 608 Q 1002 608 1002 618 L 1002 645 Q 1002 655 992 655 L 889 655 Q 879 655 879 645 L 879 618 Q 879 608 889 608 Z" stroke-miterlimit="10"></path></g><g transform="translate(-486,-82) scale(1,1)"><g><path fill="none" stroke="none"></path><text fill="#000000" stroke="none" font-family="Arial" font-size="13px" font-style="normal" font-weight="bold" text-decoration="none" x="931.5" y="627.5">run</text></g></g><g transform="translate(-486,-82) scale(1,1)"><path fill="none" stroke="#000000" d="M 940 655 L 940 796" stroke-miterlimit="10"></path></g><g transform="translate(-486,-82) scale(1,1)"><path fill="none" stroke="#000000" d="M 935.790482243984 785.8373251423759 L 940 796 L 944.209517756016 785.8373251423759" stroke-miterlimit="10"></path></g><g transform="translate(-486,-82) scale(1,1)"><g><path fill="none" stroke="none"></path><text fill="#000000" stroke="none" font-family="Arial" font-size="13px" font-style="normal" font-weight="normal" text-decoration="none" x="892" y="731">completed algorithm?</text></g></g><g transform="translate(-486,-82) scale(1,1)"><path fill="none" stroke="#000000" d="M 951 804 L 1036 804 L 1036 628 L 1002 628" stroke-miterlimit="10"></path></g><g transform="translate(-486,-82) scale(1,1)"><path fill="none" stroke="#000000" d="M 1012.1626748576241 623.790482243984 L 1002 628 L 1012.1626748576241 632.209517756016" stroke-miterlimit="10"></path></g><g transform="translate(-486,-82) scale(1,1)"><g><path fill="none" stroke="none"></path><text fill="#000000" stroke="none" font-family="Arial" font-size="13px" font-style="normal" font-weight="normal" text-decoration="none" x="1019" y="708">no</text></g></g><g transform="translate(-486,-82) scale(1,1)"><path fill="#C0C0C0" stroke="none" d="M 892 947 L 955 947 Q 958 947 958 950 L 958 949 Q 958 952 955 952 L 892 952 Q 889 952 889 949 L 889 950 Q 889 947 892 947 Z" opacity="0.2"></path></g><g transform="translate(-486,-82) scale(1,1)"><path fill="#000000" stroke="none" d="M 885 940 L 948 940 Q 951 940 951 943 L 951 943 Q 951 946 948 946 L 885 946 Q 882 946 882 943 L 882 943 Q 882 940 885 940 Z"></path></g><g transform="translate(-486,-82) scale(1,1)"><path fill="#C0C0C0" stroke="none" d="M 1200 527 L 1274 527 Q 1284 527 1284 537 L 1284 557 Q 1284 567 1274 567 L 1200 567 Q 1190 567 1190 557 L 1190 537 Q 1190 527 1200 527 Z" opacity="0.2"></path></g><g transform="translate(-486,-82) scale(1,1)"><path fill="#ffffff" stroke="none" d="M 1193 520 L 1267 520 Q 1277 520 1277 530 L 1277 550 Q 1277 560 1267 560 L 1193 560 Q 1183 560 1183 550 L 1183 530 Q 1183 520 1193 520 Z"></path></g><g transform="translate(-486,-82) scale(1,1)"><path fill="none" stroke="#000000" d="M 1193 520 L 1267 520 Q 1277 520 1277 530 L 1277 550 Q 1277 560 1267 560 L 1193 560 Q 1183 560 1183 550 L 1183 530 Q 1183 520 1193 520 Z" stroke-miterlimit="10"></path></g><g transform="translate(-486,-82) scale(1,1)"><g><path fill="none" stroke="none"></path><text fill="#000000" stroke="none" font-family="Arial" font-size="13px" font-style="normal" font-weight="bold" text-decoration="none" x="1190" y="539.5">Update Model</text></g></g><g transform="translate(-486,-82) scale(1,1)"><path fill="none" stroke="#000000" d="M 1230 465 L 1230 519" stroke-miterlimit="10"></path></g><g transform="translate(-486,-82) scale(1,1)"><path fill="none" stroke="#000000" d="M 1225.7904822439841 508.83732514237585 L 1230 519 L 1234.2095177560159 508.83732514237585" stroke-miterlimit="10"></path></g><g transform="translate(-486,-82) scale(1,1)"><g><path fill="none" stroke="none"></path><text fill="#000000" stroke="none" font-family="Arial" font-size="13px" font-style="normal" font-weight="normal" text-decoration="none" x="1176" y="498">Calculate time advance</text></g></g><g transform="translate(-486,-82) scale(1,1)"><path fill="#C0C0C0" stroke="none" d="M 523 515 L 592 515 Q 602 515 602 525 L 602 545 Q 602 555 592 555 L 523 555 Q 513 555 513 545 L 513 525 Q 513 515 523 515 Z" opacity="0.2"></path></g><g transform="translate(-486,-82) scale(1,1)"><path fill="#ffffff" stroke="none" d="M 516 508 L 585 508 Q 595 508 595 518 L 595 538 Q 595 548 585 548 L 516 548 Q 506 548 506 538 L 506 518 Q 506 508 516 508 Z"></path></g><g transform="translate(-486,-82) scale(1,1)"><path fill="none" stroke="#000000" d="M 516 508 L 585 508 Q 595 508 595 518 L 595 538 Q 595 548 585 548 L 516 548 Q 506 548 506 538 L 506 518 Q 506 508 516 508 Z" stroke-miterlimit="10"></path></g><g transform="translate(-486,-82) scale(1,1)"><g><path fill="none" stroke="none"></path><text fill="#000000" stroke="none" font-family="Arial" font-size="13px" font-style="normal" font-weight="bold" text-decoration="none" x="512.5" y="527.5">Check Model</text></g></g><g transform="translate(-486,-82) scale(1,1)"><path fill="none" stroke="#000000" d="M 550 480 L 550 507" stroke-miterlimit="10"></path></g><g transform="translate(-486,-82) scale(1,1)"><path fill="none" stroke="#000000" d="M 545.790482243984 496.83732514237585 L 550 507 L 554.209517756016 496.83732514237585" stroke-miterlimit="10"></path></g><g transform="translate(-486,-82) scale(1,1)"><path fill="none" stroke="#000000" d="M 538 548 L 538 544 M 538 544 A 8 8 0 0 1 530 552 L 528 552 M 528 552 A 8 8 0 0 0 520 560 L 520 612" stroke-miterlimit="10"></path></g><g transform="translate(-486,-82) scale(1,1)"><path fill="none" stroke="#000000" d="M 515.790482243984 601.8373251423759 L 520 612 L 524.209517756016 601.8373251423759" stroke-miterlimit="10"></path></g><g transform="translate(-486,-82) scale(1,1)"><g><path fill="none" stroke="none"></path><text fill="#000000" stroke="none" font-family="Arial" font-size="13px" font-style="normal" font-weight="normal" text-decoration="none" x="511" y="574">done?</text></g></g><g transform="translate(-486,-82) scale(1,1)"><path fill="none" stroke="#000000" d="M 530 621 L 568 621 M 568 621 A 8 8 0 0 1 576 629 L 576 648" stroke-miterlimit="10"></path></g><g transform="translate(-486,-82) scale(1,1)"><path fill="none" stroke="#000000" d="M 571.790482243984 637.8373251423759 L 576 648 L 580.209517756016 637.8373251423759" stroke-miterlimit="10"></path></g><g transform="translate(-486,-82) scale(1,1)"><g><path fill="none" stroke="none"></path><text fill="#000000" stroke="none" font-family="Arial" font-size="13px" font-style="normal" font-weight="normal" text-decoration="none" x="583" y="627">no</text></g></g><g transform="translate(-486,-82) scale(1,1)"><path fill="none" stroke="#000000" d="M 594 648 L 594 572 M 594 572 A 8 8 0 0 1 602 564 L 724 564 M 724 564 A 8 8 0 0 0 732 556 L 732 508 M 732 508 A 8 8 0 0 1 740 500 L 908 500 M 908 500 A 8 8 0 0 0 916 492 L 916 484" stroke-miterlimit="10"></path></g><g transform="translate(-486,-82) scale(1,1)"><path fill="none" stroke="#000000" d="M 920.209517756016 494.16267485762415 L 916 484 L 911.790482243984 494.16267485762415" stroke-miterlimit="10"></path></g><g transform="translate(-486,-82) scale(1,1)"><path fill="none" stroke="#000000" d="M 1230 561 L 1231 659" stroke-miterlimit="10"></path></g><g transform="translate(-486,-82) scale(1,1)"><path fill="none" stroke="#000000" d="M 1226.6870060158303 648.8808062133133 L 1231 659 L 1235.1056032532838 648.79490215987" stroke-miterlimit="10"></path></g><g transform="translate(-486,-82) scale(1,1)"><g><path fill="none" stroke="none"></path><text fill="#000000" stroke="none" font-family="Arial" font-size="13px" font-style="normal" font-weight="normal" text-decoration="none" x="1182" y="616">done with simulation?</text></g></g><g transform="translate(-486,-82) scale(1,1)"><path fill="none" stroke="#000000" d="M 1220 668 L 1164 668 L 1164 456 L 1193 456" stroke-miterlimit="10"></path></g><g transform="translate(-486,-82) scale(1,1)"><path fill="none" stroke="#000000" d="M 1182.837325142376 460.209517756016 L 1193 456 L 1182.837325142376 451.790482243984" stroke-miterlimit="10"></path></g><g transform="translate(-486,-82) scale(1,1)"><g><path fill="none" stroke="none"></path><text fill="#000000" stroke="none" font-family="Arial" font-size="13px" font-style="normal" font-weight="normal" text-decoration="none" x="1142" y="568">no</text></g></g><g transform="translate(-486,-82) scale(1,1)"><path fill="none" stroke="#000000" d="M 1230 678 L 1230 916 M 1230 916 A 8 8 0 0 1 1222 924 L 915 924 M 915 924 A 8 8 0 0 0 907 932 L 907 940" stroke-miterlimit="10"></path></g><g transform="translate(-486,-82) scale(1,1)"><path fill="none" stroke="#000000" d="M 902.790482243984 929.8373251423759 L 907 940 L 911.209517756016 929.8373251423759" stroke-miterlimit="10"></path></g><g transform="translate(-486,-82) scale(1,1)"><g><path fill="none" stroke="none"></path><text fill="#000000" stroke="none" font-family="Arial" font-size="13px" font-style="normal" font-weight="normal" text-decoration="none" x="1232" y="765">yes</text></g></g><g transform="translate(-486,-82) scale(1,1)"><path fill="#C0C0C0" stroke="none" d="M 545 655 L 658 655 Q 668 655 668 665 L 668 685 Q 668 695 658 695 L 545 695 Q 535 695 535 685 L 535 665 Q 535 655 545 655 Z" opacity="0.2"></path></g><g transform="translate(-486,-82) scale(1,1)"><path fill="#ffffff" stroke="none" d="M 538 648 L 651 648 Q 661 648 661 658 L 661 678 Q 661 688 651 688 L 538 688 Q 528 688 528 678 L 528 658 Q 528 648 538 648 Z"></path></g><g transform="translate(-486,-82) scale(1,1)"><path fill="none" stroke="#000000" d="M 538 648 L 651 648 Q 661 648 661 658 L 661 678 Q 661 688 651 688 L 538 688 Q 528 688 528 678 L 528 658 Q 528 648 538 648 Z" stroke-miterlimit="10"></path></g><g transform="translate(-486,-82) scale(1,1)"><g><path fill="none" stroke="none"></path><text fill="#000000" stroke="none" font-family="Arial" font-size="13px" font-style="normal" font-weight="bold" text-decoration="none" x="536.5" y="667.5">Provide model state</text></g></g><g transform="translate(-486,-82) scale(1,1)"><path fill="#C0C0C0" stroke="none" d="M 515 628.5 L 526.5 619 L 537 628.5 L 526.5 637 L 515 628.5" opacity="0.2"></path></g><g transform="translate(-486,-82) scale(1,1)"><path fill="#ffffff" stroke="none" d="M 508 621 L 519 612 L 530 621 L 519 630 L 508 621"></path></g><g transform="translate(-486,-82) scale(1,1)"><path fill="none" stroke="#000000" d="M 508 621 L 519 612 L 530 621 L 519 630 L 508 621 L 508 621" stroke-miterlimit="10"></path></g><g transform="translate(-486,-82) scale(1,1)"><path fill="none" stroke="#000000" d="M 520 630 L 520 804" stroke-miterlimit="10"></path></g><g transform="translate(-486,-82) scale(1,1)"><path fill="none" stroke="#000000" d="M 515.790482243984 793.8373251423759 L 520 804 L 524.209517756016 793.8373251423759" stroke-miterlimit="10"></path></g><g transform="translate(-486,-82) scale(1,1)"><g><path fill="none" stroke="none"></path><text fill="#000000" stroke="none" font-family="Arial" font-size="13px" font-style="normal" font-weight="normal" text-decoration="none" x="524" y="723">yes</text></g></g><g transform="translate(-486,-82) scale(1,1)"><path fill="#C0C0C0" stroke="none" d="M 525 811 L 591 811 Q 601 811 601 821 L 601 841 Q 601 851 591 851 L 525 851 Q 515 851 515 841 L 515 821 Q 515 811 525 811 Z" opacity="0.2"></path></g><g transform="translate(-486,-82) scale(1,1)"><path fill="#ffffff" stroke="none" d="M 518 804 L 584 804 Q 594 804 594 814 L 594 834 Q 594 844 584 844 L 518 844 Q 508 844 508 834 L 508 814 Q 508 804 518 804 Z"></path></g><g transform="translate(-486,-82) scale(1,1)"><path fill="none" stroke="#000000" d="M 518 804 L 584 804 Q 594 804 594 814 L 594 834 Q 594 844 584 844 L 518 844 Q 508 844 508 834 L 508 814 Q 508 804 518 804 Z" stroke-miterlimit="10"></path></g><g transform="translate(-486,-82) scale(1,1)"><g><path fill="none" stroke="none"></path><text fill="#000000" stroke="none" font-family="Arial" font-size="13px" font-style="normal" font-weight="bold" text-decoration="none" x="516" y="823.5">End of input</text></g></g><g transform="translate(-486,-82) scale(1,1)"><path fill="none" stroke="#000000" d="M 551 804 L 551 720 M 551 720 A 8 8 0 0 1 559 712 L 724 712 M 724 712 A 8 8 0 0 0 732 704 L 732 500 M 732 500 A 8 8 0 0 1 740 492 L 908 492 M 908 492 A 8 8 0 0 0 916 484 L 916 484" stroke-miterlimit="10"></path></g><g transform="translate(-486,-82) scale(1,1)"><path fill="none" stroke="#000000" d="M 920.209517756016 494.16267485762415 L 916 484 L 911.790482243984 494.16267485762415" stroke-miterlimit="10"></path></g><g transform="translate(-486,-82) scale(1,1)"><path fill="none" stroke="#000000" d="M 585 844 L 585 888 M 585 888 A 8 8 0 0 0 593 896 L 899 896 M 899 896 A 8 8 0 0 1 907 904 L 907 940" stroke-miterlimit="10"></path></g><g transform="translate(-486,-82) scale(1,1)"><path fill="none" stroke="#000000" d="M 902.790482243984 929.8373251423759 L 907 940 L 911.209517756016 929.8373251423759" stroke-miterlimit="10"></path></g><g transform="translate(-486,-82) scale(1,1)"><path fill="#C0C0C0" stroke="none" d="M 936 548.5 L 947.5 539 L 958 548.5 L 947.5 557 L 936 548.5" opacity="0.2"></path></g><g transform="translate(-486,-82) scale(1,1)"><path fill="#ffffff" stroke="none" d="M 929 541 L 940 532 L 951 541 L 940 550 L 929 541"></path></g><g transform="translate(-486,-82) scale(1,1)"><path fill="none" stroke="#000000" d="M 929 541 L 940 532 L 951 541 L 940 550 L 929 541 L 929 541" stroke-miterlimit="10"></path></g><g transform="translate(-486,-82) scale(1,1)"><path fill="none" stroke="#000000" d="M 940 485 L 940 531" stroke-miterlimit="10"></path></g><g transform="translate(-486,-82) scale(1,1)"><path fill="none" stroke="#000000" d="M 935.790482243984 520.8373251423759 L 940 531 L 944.209517756016 520.8373251423759" stroke-miterlimit="10"></path></g><g transform="translate(-486,-82) scale(1,1)"><g><path fill="none" stroke="none"></path><text fill="#000000" stroke="none" font-family="Arial" font-size="13px" font-style="normal" font-weight="normal" text-decoration="none" x="939" y="521">end of input?</text></g></g><g transform="translate(-486,-82) scale(1,1)"><path fill="none" stroke="#000000" d="M 940 551 L 940 607" stroke-miterlimit="10"></path></g><g transform="translate(-486,-82) scale(1,1)"><path fill="none" stroke="#000000" d="M 935.790482243984 596.8373251423759 L 940 607 L 944.209517756016 596.8373251423759" stroke-miterlimit="10"></path></g><g transform="translate(-486,-82) scale(1,1)"><g><path fill="none" stroke="none"></path><text fill="#000000" stroke="none" font-family="Arial" font-size="13px" font-style="normal" font-weight="normal" text-decoration="none" x="947" y="585">no</text></g></g><g transform="translate(-486,-82) scale(1,1)"><path fill="none" stroke="#000000" d="M 929 804 L 864 804 M 864 804 A 8 8 0 0 1 856 796 L 856 576 M 856 576 A 8 8 0 0 1 864 568 L 912 568 M 912 568 A 8 8 0 0 0 920 560 L 920 484" stroke-miterlimit="10"></path></g><g transform="translate(-486,-82) scale(1,1)"><path fill="none" stroke="#000000" d="M 924.209517756016 494.16267485762415 L 920 484 L 915.790482243984 494.16267485762415" stroke-miterlimit="10"></path></g><g transform="translate(-486,-82) scale(1,1)"><g><path fill="none" stroke="none"></path><text fill="#000000" stroke="none" font-family="Arial" font-size="13px" font-style="normal" font-weight="normal" text-decoration="none" x="832" y="729">yes</text></g></g><g transform="translate(-486,-82) scale(1,1)"><path fill="#C0C0C0" stroke="none" d="M 995 447 L 1087 447 L 1087 487 L 995 487 L 1005.25 467.5" opacity="0.2"></path></g><g transform="translate(-486,-82) scale(1,1)"><path fill="#ffffff" stroke="none" d="M 988 440 L 1080 440 L 1080 480 L 988 480 L 998.25 460.5"></path></g><g transform="translate(-486,-82) scale(1,1)"><path fill="none" stroke="#000000" d="M 988 440 L 1080 440 L 1080 480 L 988 480 L 998.25 460.5 L 988 440" stroke-miterlimit="10"></path></g><g transform="translate(-486,-82) scale(1,1)"><g><path fill="none" stroke="none"></path><text fill="#000000" stroke="none" font-family="Arial" font-size="13px" font-style="normal" font-weight="bold" text-decoration="none" x="994.5" y="459.5">Provide Stats</text></g></g><g transform="translate(-486,-82) scale(1,1)"><path fill="#C0C0C0" stroke="none" d="M 936 812.5 L 947.5 803 L 958 812.5 L 947.5 821 L 936 812.5" opacity="0.2"></path></g><g transform="translate(-486,-82) scale(1,1)"><path fill="#ffffff" stroke="none" d="M 929 805 L 940 796 L 951 805 L 940 814 L 929 805"></path></g><g transform="translate(-486,-82) scale(1,1)"><path fill="none" stroke="#000000" d="M 929 805 L 940 796 L 951 805 L 940 814 L 929 805 L 929 805" stroke-miterlimit="10"></path></g><g transform="translate(-486,-82) scale(1,1)"><path fill="none" stroke="#000000" d="M 951 540 L 1052 540 M 1052 540 A 8 8 0 0 1 1060 548 L 1060 888 M 1060 888 A 8 8 0 0 1 1052 896 L 915 896 M 915 896 A 8 8 0 0 0 907 904 L 907 940" stroke-miterlimit="10"></path></g><g transform="translate(-486,-82) scale(1,1)"><path fill="none" stroke="#000000" d="M 902.790482243984 929.8373251423759 L 907 940 L 911.209517756016 929.8373251423759" stroke-miterlimit="10"></path></g><g transform="translate(-486,-82) scale(1,1)"><g><path fill="none" stroke="none"></path><text fill="#000000" stroke="none" font-family="Arial" font-size="13px" font-style="normal" font-weight="normal" text-decoration="none" x="1044" y="540">yes</text></g></g><g transform="translate(-486,-82) scale(1,1)"><path fill="#C0C0C0" stroke="none" d="M 885 999 L 962 999 Q 972 999 972 1009 L 972 1029 Q 972 1039 962 1039 L 885 1039 Q 875 1039 875 1029 L 875 1009 Q 875 999 885 999 Z" opacity="0.2"></path></g><g transform="translate(-486,-82) scale(1,1)"><path fill="#ffffff" stroke="none" d="M 878 992 L 955 992 Q 965 992 965 1002 L 965 1022 Q 965 1032 955 1032 L 878 1032 Q 868 1032 868 1022 L 868 1002 Q 868 992 878 992 Z"></path></g><g transform="translate(-486,-82) scale(1,1)"><path fill="none" stroke="#000000" d="M 878 992 L 955 992 Q 965 992 965 1002 L 965 1022 Q 965 1032 955 1032 L 878 1032 Q 868 1032 868 1022 L 868 1002 Q 868 992 878 992 Z" stroke-miterlimit="10"></path></g><g transform="translate(-486,-82) scale(1,1)"><g><path fill="none" stroke="none"></path><text fill="#000000" stroke="none" font-family="Arial" font-size="13px" font-style="normal" font-weight="bold" text-decoration="none" x="875.5" y="1011.5">Output results</text></g></g><g transform="translate(-486,-82) scale(1,1)"><path fill="none" stroke="#000000" d="M 916 946 L 916 991" stroke-miterlimit="10"></path></g><g transform="translate(-486,-82) scale(1,1)"><path fill="none" stroke="#000000" d="M 911.790482243984 980.8373251423759 L 916 991 L 920.209517756016 980.8373251423759" stroke-miterlimit="10"></path></g><g transform="translate(-486,-82) scale(1,1)"><path fill="#C0C0C0" stroke="none" d="M 911 1123.5 C 911 1116.59644 916.59644 1111 923.5 1111 C 930.40356 1111 936 1116.59644 936 1123.5 C 936 1130.40356 930.40356 1136 923.5 1136 C 916.59644 1136 911 1130.40356 911 1123.5 Z" opacity="0.2"></path></g><g transform="translate(-486,-82) scale(1,1)"><path fill="none" stroke="#000000" d="M 904 1116.5 C 904 1109.59644 909.59644 1104 916.5 1104 C 923.40356 1104 929 1109.59644 929 1116.5 C 929 1123.40356 923.40356 1129 916.5 1129 C 909.59644 1129 904 1123.40356 904 1116.5 Z" stroke-miterlimit="10"></path></g><g transform="translate(-486,-82) scale(1,1)"><path fill="#000000" stroke="none" d="M 909 1116.5 C 909 1112.357864 912.357864 1109 916.5 1109 C 920.642136 1109 924 1112.357864 924 1116.5 C 924 1120.642136 920.642136 1124 916.5 1124 C 912.357864 1124 909 1120.642136 909 1116.5 Z"></path></g><g transform="translate(-486,-82) scale(1,1)"><path fill="none" stroke="#000000" d="M 916 1033 L 916 1103" stroke-miterlimit="10"></path></g><g transform="translate(-486,-82) scale(1,1)"><path fill="none" stroke="#000000" d="M 911.790482243984 1092.837325142376 L 916 1103 L 920.209517756016 1092.837325142376" stroke-miterlimit="10"></path></g><g transform="translate(-486,-82) scale(1,1)"><path fill="#C0C0C0" stroke="none" d="M 1227 676.5 L 1238.5 667 L 1249 676.5 L 1238.5 685 L 1227 676.5" opacity="0.2"></path></g><g transform="translate(-486,-82) scale(1,1)"><path fill="#ffffff" stroke="none" d="M 1220 669 L 1231 660 L 1242 669 L 1231 678 L 1220 669"></path></g><g transform="translate(-486,-82) scale(1,1)"><path fill="none" stroke="#000000" d="M 1220 669 L 1231 660 L 1242 669 L 1231 678 L 1220 669 L 1220 669" stroke-miterlimit="10"></path></g><g transform="translate(-486,-82) scale(1,1)"><path fill="#C0C0C0" stroke="none" d="M 533 363 L 612 363 Q 622 363 622 373 L 622 393 Q 622 403 612 403 L 533 403 Q 523 403 523 393 L 523 373 Q 523 363 533 363 Z" opacity="0.2"></path></g><g transform="translate(-486,-82) scale(1,1)"><path fill="#ffffff" stroke="none" d="M 526 356 L 605 356 Q 615 356 615 366 L 615 386 Q 615 396 605 396 L 526 396 Q 516 396 516 386 L 516 366 Q 516 356 526 356 Z"></path></g><g transform="translate(-486,-82) scale(1,1)"><path fill="none" stroke="#000000" d="M 526 356 L 605 356 Q 615 356 615 366 L 615 386 Q 615 396 605 396 L 526 396 Q 516 396 516 386 L 516 366 Q 516 356 526 356 Z" stroke-miterlimit="10"></path></g><g transform="translate(-486,-82) scale(1,1)"><g><path fill="none" stroke="none"></path><text fill="#000000" stroke="none" font-family="Arial" font-size="13px" font-style="normal" font-weight="bold" text-decoration="none" x="524" y="375.5">Preprocessing</text></g></g></g></svg>