<svg version="1.1" xmlns="http://www.w3.org/2000/svg" xmlns:xlink="http://www.w3.org/1999/xlink" width="1244" height="887"><defs/><g><g transform="translate(-34,-22) scale(1,1)"><path fill="#C0C0C0" stroke="none" d="M 715 161 L 983 161 L 983 481 L 715 481" opacity="0.2"/></g><g transform="translate(-34,-22) scale(1,1)"><path fill="#C0C0C0" stroke="none" d="M 715 161 L 725 151 L 993 151 L 983 161" opacity="0.2"/></g><g transform="translate(-34,-22) scale(1,1)"><path fill="#C0C0C0" stroke="none" d="M 993 151 L 983 161 L 983 481 L 993 471" opacity="0.2"/></g><g transform="translate(-34,-22) scale(1,1)"><path fill="#ffaa56" stroke="none" d="M 708 154 L 976 154 L 976 474 L 708 474"/></g><g transform="translate(-34,-22) scale(1,1)"><path fill="#ffaa56" stroke="none" d="M 708 154 L 718 144 L 986 144 L 976 154"/></g><g transform="translate(-34,-22) scale(1,1)"><path fill="#ffaa56" stroke="none" d="M 986 144 L 976 154 L 976 474 L 986 464"/></g><g transform="translate(-34,-22) scale(1,1)"><path fill="none" stroke="#000000" d="M 708 154 L 976 154 L 976 474 L 708 474 L 708 154" stroke-miterlimit="10"/></g><g transform="translate(-34,-22) scale(1,1)"><path fill="none" stroke="#000000" d="M 708 154 L 718 144 L 986 144 L 976 154 L 708 154" stroke-miterlimit="10"/></g><g transform="translate(-34,-22) scale(1,1)"><path fill="none" stroke="#000000" d="M 986 144 L 976 154 L 976 474 L 986 464 L 986 144" stroke-miterlimit="10"/></g><g transform="translate(-34,-22) scale(1,1)"><g><path fill="none" stroke="none"/><text fill="#000000" stroke="none" font-family="Arial" font-size="13px" font-style="normal" font-weight="bold" text-decoration="none" x="790.845947265625" y="173.5">PyDynDSProcess</text></g></g><g transform="translate(-34,-22) scale(1,1)"><path fill="#C0C0C0" stroke="none" d="M 387 165 L 655 165 L 655 485 L 387 485" opacity="0.2"/></g><g transform="translate(-34,-22) scale(1,1)"><path fill="#C0C0C0" stroke="none" d="M 387 165 L 397 155 L 665 155 L 655 165" opacity="0.2"/></g><g transform="translate(-34,-22) scale(1,1)"><path fill="#C0C0C0" stroke="none" d="M 665 155 L 655 165 L 655 485 L 665 475" opacity="0.2"/></g><g transform="translate(-34,-22) scale(1,1)"><path fill="#ffaa56" stroke="none" d="M 380 158 L 648 158 L 648 478 L 380 478"/></g><g transform="translate(-34,-22) scale(1,1)"><path fill="#ffaa56" stroke="none" d="M 380 158 L 390 148 L 658 148 L 648 158"/></g><g transform="translate(-34,-22) scale(1,1)"><path fill="#ffaa56" stroke="none" d="M 658 148 L 648 158 L 648 478 L 658 468"/></g><g transform="translate(-34,-22) scale(1,1)"><path fill="none" stroke="#000000" d="M 380 158 L 648 158 L 648 478 L 380 478 L 380 158" stroke-miterlimit="10"/></g><g transform="translate(-34,-22) scale(1,1)"><path fill="none" stroke="#000000" d="M 380 158 L 390 148 L 658 148 L 648 158 L 380 158" stroke-miterlimit="10"/></g><g transform="translate(-34,-22) scale(1,1)"><path fill="none" stroke="#000000" d="M 658 148 L 648 158 L 648 478 L 658 468 L 658 148" stroke-miterlimit="10"/></g><g transform="translate(-34,-22) scale(1,1)"><g><path fill="none" stroke="none"/><text fill="#000000" stroke="none" font-family="Arial" font-size="13px" font-style="normal" font-weight="bold" text-decoration="none" x="462.845947265625" y="177.5">PyDynDSProcess</text></g></g><g transform="translate(-34,-22) scale(1,1)"><path fill="#C0C0C0" stroke="none" d="M 51 165 L 319 165 L 319 485 L 51 485" opacity="0.2"/></g><g transform="translate(-34,-22) scale(1,1)"><path fill="#C0C0C0" stroke="none" d="M 51 165 L 61 155 L 329 155 L 319 165" opacity="0.2"/></g><g transform="translate(-34,-22) scale(1,1)"><path fill="#C0C0C0" stroke="none" d="M 329 155 L 319 165 L 319 485 L 329 475" opacity="0.2"/></g><g transform="translate(-34,-22) scale(1,1)"><path fill="#ffaa56" stroke="none" d="M 44 158 L 312 158 L 312 478 L 44 478"/></g><g transform="translate(-34,-22) scale(1,1)"><path fill="#ffaa56" stroke="none" d="M 44 158 L 54 148 L 322 148 L 312 158"/></g><g transform="translate(-34,-22) scale(1,1)"><path fill="#ffaa56" stroke="none" d="M 322 148 L 312 158 L 312 478 L 322 468"/></g><g transform="translate(-34,-22) scale(1,1)"><path fill="none" stroke="#000000" d="M 44 158 L 312 158 L 312 478 L 44 478 L 44 158" stroke-miterlimit="10"/></g><g transform="translate(-34,-22) scale(1,1)"><path fill="none" stroke="#000000" d="M 44 158 L 54 148 L 322 148 L 312 158 L 44 158" stroke-miterlimit="10"/></g><g transform="translate(-34,-22) scale(1,1)"><path fill="none" stroke="#000000" d="M 322 148 L 312 158 L 312 478 L 322 468 L 322 148" stroke-miterlimit="10"/></g><g transform="translate(-34,-22) scale(1,1)"><g><path fill="none" stroke="none"/><text fill="#000000" stroke="none" font-family="Arial" font-size="13px" font-style="normal" font-weight="bold" text-decoration="none" x="126.845947265625" y="177.5">PyDynDSProcess</text></g></g><g transform="translate(-34,-22) scale(1,1)"><path fill="#C0C0C0" stroke="none" d="M 431 209 L 611 209 L 611 441 L 431 441" opacity="0.2"/></g><g transform="translate(-34,-22) scale(1,1)"><path fill="#C0C0C0" stroke="none" d="M 431 209 L 441 199 L 621 199 L 611 209" opacity="0.2"/></g><g transform="translate(-34,-22) scale(1,1)"><path fill="#C0C0C0" stroke="none" d="M 621 199 L 611 209 L 611 441 L 621 431" opacity="0.2"/></g><g transform="translate(-34,-22) scale(1,1)"><path fill="#00d369" stroke="none" d="M 424 202 L 604 202 L 604 434 L 424 434"/></g><g transform="translate(-34,-22) scale(1,1)"><path fill="#00d369" stroke="none" d="M 424 202 L 434 192 L 614 192 L 604 202"/></g><g transform="translate(-34,-22) scale(1,1)"><path fill="#00d369" stroke="none" d="M 614 192 L 604 202 L 604 434 L 614 424"/></g><g transform="translate(-34,-22) scale(1,1)"><path fill="none" stroke="#000000" d="M 424 202 L 604 202 L 604 434 L 424 434 L 424 202" stroke-miterlimit="10"/></g><g transform="translate(-34,-22) scale(1,1)"><path fill="none" stroke="#000000" d="M 424 202 L 434 192 L 614 192 L 604 202 L 424 202" stroke-miterlimit="10"/></g><g transform="translate(-34,-22) scale(1,1)"><path fill="none" stroke="#000000" d="M 614 192 L 604 202 L 604 434 L 614 424 L 614 192" stroke-miterlimit="10"/></g><g transform="translate(-34,-22) scale(1,1)"><g><path fill="none" stroke="none"/><text fill="#000000" stroke="none" font-family="Arial" font-size="13px" font-style="normal" font-weight="bold" text-decoration="none" x="487.04638671875" y="221.5">Algorithm</text></g></g><g transform="translate(-34,-22) scale(1,1)"><path fill="#C0C0C0" stroke="none" d="M 761 204 L 937 204 L 937 437 L 761 437" opacity="0.2"/></g><g transform="translate(-34,-22) scale(1,1)"><path fill="#C0C0C0" stroke="none" d="M 761 204 L 771 194 L 947 194 L 937 204" opacity="0.2"/></g><g transform="translate(-34,-22) scale(1,1)"><path fill="#C0C0C0" stroke="none" d="M 947 194 L 937 204 L 937 437 L 947 427" opacity="0.2"/></g><g transform="translate(-34,-22) scale(1,1)"><path fill="#ff0000" stroke="none" d="M 754 197 L 930 197 L 930 430 L 754 430"/></g><g transform="translate(-34,-22) scale(1,1)"><path fill="#ff0000" stroke="none" d="M 754 197 L 764 187 L 940 187 L 930 197"/></g><g transform="translate(-34,-22) scale(1,1)"><path fill="#ff0000" stroke="none" d="M 940 187 L 930 197 L 930 430 L 940 420"/></g><g transform="translate(-34,-22) scale(1,1)"><path fill="none" stroke="#000000" d="M 754 197 L 930 197 L 930 430 L 754 430 L 754 197" stroke-miterlimit="10"/></g><g transform="translate(-34,-22) scale(1,1)"><path fill="none" stroke="#000000" d="M 754 197 L 764 187 L 940 187 L 930 197 L 754 197" stroke-miterlimit="10"/></g><g transform="translate(-34,-22) scale(1,1)"><path fill="none" stroke="#000000" d="M 940 187 L 930 197 L 930 430 L 940 420 L 940 187" stroke-miterlimit="10"/></g><g transform="translate(-34,-22) scale(1,1)"><g><path fill="none" stroke="none"/><text fill="#000000" stroke="none" font-family="Arial" font-size="13px" font-style="normal" font-weight="bold" text-decoration="none" x="824.79638671875" y="216.5">Model</text></g></g><g transform="translate(-34,-22) scale(1,1)"><path fill="#C0C0C0" stroke="none" d="M 91 207 L 267 207 L 267 443 L 91 443" opacity="0.2"/></g><g transform="translate(-34,-22) scale(1,1)"><path fill="#C0C0C0" stroke="none" d="M 91 207 L 101 197 L 277 197 L 267 207" opacity="0.2"/></g><g transform="translate(-34,-22) scale(1,1)"><path fill="#C0C0C0" stroke="none" d="M 277 197 L 267 207 L 267 443 L 277 433" opacity="0.2"/></g><g transform="translate(-34,-22) scale(1,1)"><path fill="#00a9ff" stroke="none" d="M 84 200 L 260 200 L 260 436 L 84 436"/></g><g transform="translate(-34,-22) scale(1,1)"><path fill="#00a9ff" stroke="none" d="M 84 200 L 94 190 L 270 190 L 260 200"/></g><g transform="translate(-34,-22) scale(1,1)"><path fill="#00a9ff" stroke="none" d="M 270 190 L 260 200 L 260 436 L 270 426"/></g><g transform="translate(-34,-22) scale(1,1)"><path fill="none" stroke="#000000" d="M 84 200 L 260 200 L 260 436 L 84 436 L 84 200" stroke-miterlimit="10"/></g><g transform="translate(-34,-22) scale(1,1)"><path fill="none" stroke="#000000" d="M 84 200 L 94 190 L 270 190 L 260 200 L 84 200" stroke-miterlimit="10"/></g><g transform="translate(-34,-22) scale(1,1)"><path fill="none" stroke="#000000" d="M 270 190 L 260 200 L 260 436 L 270 426 L 270 190" stroke-miterlimit="10"/></g><g transform="translate(-34,-22) scale(1,1)"><g><path fill="none" stroke="none"/><text fill="#000000" stroke="none" font-family="Arial" font-size="13px" font-style="normal" font-weight="bold" text-decoration="none" x="145.04638671875" y="219.5">Simulator</text></g></g><g transform="translate(-34,-22) scale(1,1)"><path fill="#C0C0C0" stroke="none" d="M 415 653 L 631 653 L 631 905 L 415 905" opacity="0.2"/></g><g transform="translate(-34,-22) scale(1,1)"><path fill="#C0C0C0" stroke="none" d="M 415 653 L 425 643 L 641 643 L 631 653" opacity="0.2"/></g><g transform="translate(-34,-22) scale(1,1)"><path fill="#C0C0C0" stroke="none" d="M 641 643 L 631 653 L 631 905 L 641 895" opacity="0.2"/></g><g transform="translate(-34,-22) scale(1,1)"><path fill="#aaaaaa" stroke="none" d="M 408 646 L 624 646 L 624 898 L 408 898"/></g><g transform="translate(-34,-22) scale(1,1)"><path fill="#aaaaaa" stroke="none" d="M 408 646 L 418 636 L 634 636 L 624 646"/></g><g transform="translate(-34,-22) scale(1,1)"><path fill="#aaaaaa" stroke="none" d="M 634 636 L 624 646 L 624 898 L 634 888"/></g><g transform="translate(-34,-22) scale(1,1)"><path fill="none" stroke="#000000" d="M 408 646 L 624 646 L 624 898 L 408 898 L 408 646" stroke-miterlimit="10"/></g><g transform="translate(-34,-22) scale(1,1)"><path fill="none" stroke="#000000" d="M 408 646 L 418 636 L 634 636 L 624 646 L 408 646" stroke-miterlimit="10"/></g><g transform="translate(-34,-22) scale(1,1)"><path fill="none" stroke="#000000" d="M 634 636 L 624 646 L 624 898 L 634 888 L 634 636" stroke-miterlimit="10"/></g><g transform="translate(-34,-22) scale(1,1)"><g><path fill="none" stroke="none"/><text fill="#000000" stroke="none" font-family="Arial" font-size="13px" font-style="normal" font-weight="bold" text-decoration="none" x="457.974609375" y="665.5">SimulationController</text></g></g><g transform="translate(-34,-22) scale(1,1)"><path fill="none" stroke="#000000" d="M 271 400 L 424 400" stroke-miterlimit="10"/></g><g transform="translate(-34,-22) scale(1,1)"><path fill="none" stroke="#000000" d="M 281.16267485762415 395.790482243984 L 271 400 L 281.16267485762415 404.209517756016" stroke-miterlimit="10"/></g><g transform="translate(-34,-22) scale(1,1)"><g><path fill="none" stroke="none"/><text fill="#000000" stroke="none" font-family="Arial" font-size="13px" font-style="normal" font-weight="normal" text-decoration="none" x="279" y="392">+input</text></g></g><g transform="translate(-34,-22) scale(1,1)"><path fill="none" stroke="#000000" d="M 424 248 L 271 248" stroke-miterlimit="10"/></g><g transform="translate(-34,-22) scale(1,1)"><path fill="none" stroke="#000000" d="M 413.83732514237585 252.209517756016 L 424 248 L 413.83732514237585 243.790482243984" stroke-miterlimit="10"/></g><g transform="translate(-34,-22) scale(1,1)"><g><path fill="none" stroke="none"/><text fill="#000000" stroke="none" font-family="Arial" font-size="13px" font-style="normal" font-weight="normal" text-decoration="none" x="275" y="269">+output</text></g></g><g transform="translate(-34,-22) scale(1,1)"><path fill="none" stroke="#000000" d="M 615 400 L 754 400" stroke-miterlimit="10"/></g><g transform="translate(-34,-22) scale(1,1)"><path fill="none" stroke="#000000" d="M 625.1626748576241 395.790482243984 L 615 400 L 625.1626748576241 404.209517756016" stroke-miterlimit="10"/></g><g transform="translate(-34,-22) scale(1,1)"><g><path fill="none" stroke="none"/><text fill="#000000" stroke="none" font-family="Arial" font-size="13px" font-style="normal" font-weight="normal" text-decoration="none" x="667" y="392">+input</text></g></g><g transform="translate(-34,-22) scale(1,1)"><path fill="none" stroke="#000000" d="M 754 248 L 615 248" stroke-miterlimit="10"/></g><g transform="translate(-34,-22) scale(1,1)"><path fill="none" stroke="#000000" d="M 743.8373251423759 252.209517756016 L 754 248 L 743.8373251423758 243.790482243984" stroke-miterlimit="10"/></g><g transform="translate(-34,-22) scale(1,1)"><g><path fill="none" stroke="none"/><text fill="#000000" stroke="none" font-family="Arial" font-size="13px" font-style="normal" font-weight="normal" text-decoration="none" x="707" y="269">+output</text></g></g><g transform="translate(-34,-22) scale(1,1)"><path fill="#ffffff" stroke="none" d="M 992 492 L 1257 492 L 1267 502 L 1267 655 L 992 655 L 992 492"/></g><g transform="translate(-34,-22) scale(1,1)"><path fill="none" stroke="#000000" d="M 992 492 L 1257 492 L 1267 502 L 1267 655 L 992 655 L 992 492 L 992 492" stroke-miterlimit="10"/></g><g transform="translate(-34,-22) scale(1,1)"><path fill="none" stroke="#000000" d="M 1257 492 L 1257 502 L 1267 502 L 1257 492" stroke-miterlimit="10"/></g><g transform="translate(-34,-22) scale(1,1)"><g><path fill="none" stroke="none"/><text fill="#000000" stroke="none" font-family="Arial" font-size="13px" font-style="normal" font-weight="normal" text-decoration="none" x="997" y="510">Every pydyndsprocess has independent</text><text fill="#000000" stroke="none" font-family="Arial" font-size="13px" font-style="normal" font-weight="normal" text-decoration="none" x="997" y="523">input/output control queues. Additionally,</text><text fill="#000000" stroke="none" font-family="Arial" font-size="13px" font-style="normal" font-weight="normal" text-decoration="none" x="997" y="536">Model shares i/o queues with Algorithm, and</text><text fill="#000000" stroke="none" font-family="Arial" font-size="13px" font-style="normal" font-weight="normal" text-decoration="none" x="997" y="549">Simulator shares i/o queues with Algorithm.</text></g></g><g transform="translate(-34,-22) scale(1,1)"><g><path fill="none" stroke="none"/></g></g><g transform="translate(-34,-22) scale(1,1)"><g><path fill="none" stroke="none"/><text fill="#000000" stroke="none" font-family="Arial" font-size="13px" font-style="normal" font-weight="normal" text-decoration="none" x="997" y="566">Except where noted, all queues are handled</text><text fill="#000000" stroke="none" font-family="Arial" font-size="13px" font-style="normal" font-weight="normal" text-decoration="none" x="997" y="579">asynchronously. SimulationController may</text><text fill="#000000" stroke="none" font-family="Arial" font-size="13px" font-style="normal" font-weight="normal" text-decoration="none" x="997" y="592">block when waiting on a response, however.</text></g></g><g transform="translate(-34,-22) scale(1,1)"><g><path fill="none" stroke="none"/></g></g><g transform="translate(-34,-22) scale(1,1)"><g><path fill="none" stroke="none"/></g></g><g transform="translate(-34,-22) scale(1,1)"><g><path fill="none" stroke="none"/><text fill="#000000" stroke="none" font-family="Arial" font-size="13px" font-style="normal" font-weight="normal" text-decoration="none" x="997" y="611">In all, there are 10 queues, with 5 associated</text><text fill="#000000" stroke="none" font-family="Arial" font-size="13px" font-style="normal" font-weight="normal" text-decoration="none" x="997" y="624">input events.</text></g></g><g transform="translate(-34,-22) scale(1,1)"><path fill="none" stroke="#000000" d="M 232 479 L 232 676 M 232 676 A 8 8 0 0 0 240 684 L 408 684" stroke-miterlimit="10"/></g><g transform="translate(-34,-22) scale(1,1)"><path fill="none" stroke="#000000" d="M 236.209517756016 489.16267485762415 L 232 479 L 227.790482243984 489.16267485762415" stroke-miterlimit="10"/></g><g transform="translate(-34,-22) scale(1,1)"><g><path fill="none" stroke="none"/><text fill="#000000" stroke="none" font-family="Arial" font-size="13px" font-style="normal" font-weight="normal" text-decoration="none" x="255" y="677">+control_input</text></g></g><g transform="translate(-34,-22) scale(1,1)"><path fill="none" stroke="#000000" d="M 120 479 L 120 856 M 120 856 A 8 8 0 0 0 128 864 L 408 864" stroke-miterlimit="10"/></g><g transform="translate(-34,-22) scale(1,1)"><path fill="none" stroke="#000000" d="M 397.83732514237585 868.209517756016 L 408 864 L 397.83732514237585 859.790482243984" stroke-miterlimit="10"/></g><g transform="translate(-34,-22) scale(1,1)"><g><path fill="none" stroke="none"/><text fill="#000000" stroke="none" font-family="Arial" font-size="13px" font-style="normal" font-weight="normal" text-decoration="none" x="300" y="854">+control_output</text></g></g><g transform="translate(-34,-22) scale(1,1)"><path fill="none" stroke="#000000" d="M 440 479 L 440 636" stroke-miterlimit="10"/></g><g transform="translate(-34,-22) scale(1,1)"><path fill="none" stroke="#000000" d="M 444.209517756016 489.16267485762415 L 440 479 L 435.790482243984 489.16267485762415" stroke-miterlimit="10"/></g><g transform="translate(-34,-22) scale(1,1)"><g><path fill="none" stroke="none"/><text fill="#000000" stroke="none" font-family="Arial" font-size="13px" font-style="normal" font-weight="normal" text-decoration="none" x="413" y="563">+control_input</text></g></g><g transform="translate(-34,-22) scale(1,1)"><path fill="none" stroke="#000000" d="M 584 479 L 584 636" stroke-miterlimit="10"/></g><g transform="translate(-34,-22) scale(1,1)"><path fill="none" stroke="#000000" d="M 579.790482243984 625.8373251423759 L 584 636 L 588.209517756016 625.8373251423759" stroke-miterlimit="10"/></g><g transform="translate(-34,-22) scale(1,1)"><g><path fill="none" stroke="none"/><text fill="#000000" stroke="none" font-family="Arial" font-size="13px" font-style="normal" font-weight="normal" text-decoration="none" x="554" y="563">+control_output</text></g></g><g transform="translate(-34,-22) scale(1,1)"><path fill="none" stroke="#000000" d="M 635 680 L 792 680 M 792 680 A 8 8 0 0 0 800 672 L 800 475" stroke-miterlimit="10"/></g><g transform="translate(-34,-22) scale(1,1)"><path fill="none" stroke="#000000" d="M 804.209517756016 485.16267485762415 L 800 475 L 795.790482243984 485.16267485762415" stroke-miterlimit="10"/></g><g transform="translate(-34,-22) scale(1,1)"><g><path fill="none" stroke="none"/><text fill="#000000" stroke="none" font-family="Arial" font-size="13px" font-style="normal" font-weight="normal" text-decoration="none" x="703" y="668">+control_input</text></g></g><g transform="translate(-34,-22) scale(1,1)"><path fill="none" stroke="#000000" d="M 635 864 L 908 864 M 908 864 A 8 8 0 0 0 916 856 L 916 475" stroke-miterlimit="10"/></g><g transform="translate(-34,-22) scale(1,1)"><path fill="none" stroke="#000000" d="M 645.1626748576241 859.790482243984 L 635 864 L 645.1626748576241 868.209517756016" stroke-miterlimit="10"/></g><g transform="translate(-34,-22) scale(1,1)"><g><path fill="none" stroke="none"/><text fill="#000000" stroke="none" font-family="Arial" font-size="13px" font-style="normal" font-weight="normal" text-decoration="none" x="643" y="857">+control_output</text></g></g><g transform="translate(-34,-22) scale(1,1)"><path fill="#ffffff" stroke="none" d="M 392 32 L 628 32 L 638 42 L 638 107 L 392 107 L 392 32"/></g><g transform="translate(-34,-22) scale(1,1)"><path fill="none" stroke="#000000" d="M 392 32 L 628 32 L 638 42 L 638 107 L 392 107 L 392 32 L 392 32" stroke-miterlimit="10"/></g><g transform="translate(-34,-22) scale(1,1)"><path fill="none" stroke="#000000" d="M 628 32 L 628 42 L 638 42 L 628 32" stroke-miterlimit="10"/></g><g transform="translate(-34,-22) scale(1,1)"><g><path fill="none" stroke="none"/><text fill="#000000" stroke="none" font-family="Arial" font-size="13px" font-style="normal" font-weight="normal" text-decoration="none" x="397" y="50">These queues are blocking - when the</text><text fill="#000000" stroke="none" font-family="Arial" font-size="13px" font-style="normal" font-weight="normal" text-decoration="none" x="397" y="63">Algorithm requests an update from the</text><text fill="#000000" stroke="none" font-family="Arial" font-size="13px" font-style="normal" font-weight="normal" text-decoration="none" x="397" y="76">simulator, it will wait for the simulator to</text><text fill="#000000" stroke="none" font-family="Arial" font-size="13px" font-style="normal" font-weight="normal" text-decoration="none" x="397" y="89">respond. Likewise, the model waits on a</text><text fill="#000000" stroke="none" font-family="Arial" font-size="13px" font-style="normal" font-weight="normal" text-decoration="none" x="397" y="102">response from the Algorithm.</text></g></g><g transform="translate(-34,-22) scale(1,1)"><path fill="none" stroke="#000000" d="M 478 109 L 347 248" stroke-miterlimit="10" stroke-dasharray="3"/></g><g transform="translate(-34,-22) scale(1,1)"><rect fill="#C0C0C0" stroke="none" x="435" y="451" width="173.0234375" height="24" opacity="0.2"/></g><g transform="translate(-34,-22) scale(1,1)"><rect fill="#ffffff" stroke="none" x="428" y="444" width="173.0234375" height="24"/></g><g transform="translate(-34,-22) scale(1,1)"><path fill="none" stroke="#000000" d="M 428 444 L 601.0234375 444 L 601.0234375 468 L 428 468 L 428 444 Z Z" stroke-miterlimit="10"/></g><g transform="translate(-34,-22) scale(1,1)"><rect fill="#ffffff" stroke="none" x="428" y="444" width="173.0234375" height="24"/></g><g transform="translate(-34,-22) scale(1,1)"><path fill="none" stroke="#000000" d="M 428 444 L 601.0234375 444 L 601.0234375 468 L 428 468 L 428 444 Z Z" stroke-miterlimit="10"/></g><g transform="translate(-34,-22) scale(1,1)"><g><path fill="none" stroke="none"/><text fill="#000000" stroke="none" font-family="Arial" font-size="13px" font-style="normal" font-weight="bold" text-decoration="none" x="438.273193359375" y="463.5">controller_message_event</text><path fill="none" stroke="#000000" d="M 596.5234375 463.5 L 432.5 463.5" stroke-miterlimit="10"/></g></g><g transform="translate(-34,-22) scale(1,1)"><rect fill="#C0C0C0" stroke="none" x="767" y="443" width="173.0234375" height="24" opacity="0.2"/></g><g transform="translate(-34,-22) scale(1,1)"><rect fill="#ffffff" stroke="none" x="760" y="436" width="173.0234375" height="24"/></g><g transform="translate(-34,-22) scale(1,1)"><path fill="none" stroke="#000000" d="M 760 436 L 933.0234375 436 L 933.0234375 460 L 760 460 L 760 436 Z Z" stroke-miterlimit="10"/></g><g transform="translate(-34,-22) scale(1,1)"><rect fill="#ffffff" stroke="none" x="760" y="436" width="173.0234375" height="24"/></g><g transform="translate(-34,-22) scale(1,1)"><path fill="none" stroke="#000000" d="M 760 436 L 933.0234375 436 L 933.0234375 460 L 760 460 L 760 436 Z Z" stroke-miterlimit="10"/></g><g transform="translate(-34,-22) scale(1,1)"><g><path fill="none" stroke="none"/><text fill="#000000" stroke="none" font-family="Arial" font-size="13px" font-style="normal" font-weight="bold" text-decoration="none" x="770.273193359375" y="455.5">controller_message_event</text><path fill="none" stroke="#000000" d="M 928.5234375 455.5 L 764.5 455.5" stroke-miterlimit="10"/></g></g><g transform="translate(-34,-22) scale(1,1)"><rect fill="#C0C0C0" stroke="none" x="107" y="451" width="173.0234375" height="24" opacity="0.2"/></g><g transform="translate(-34,-22) scale(1,1)"><rect fill="#ffffff" stroke="none" x="100" y="444" width="173.0234375" height="24"/></g><g transform="translate(-34,-22) scale(1,1)"><path fill="none" stroke="#000000" d="M 100 444 L 273.0234375 444 L 273.0234375 468 L 100 468 L 100 444 Z Z" stroke-miterlimit="10"/></g><g transform="translate(-34,-22) scale(1,1)"><rect fill="#ffffff" stroke="none" x="100" y="444" width="173.0234375" height="24"/></g><g transform="translate(-34,-22) scale(1,1)"><path fill="none" stroke="#000000" d="M 100 444 L 273.0234375 444 L 273.0234375 468 L 100 468 L 100 444 Z Z" stroke-miterlimit="10"/></g><g transform="translate(-34,-22) scale(1,1)"><g><path fill="none" stroke="none"/><text fill="#000000" stroke="none" font-family="Arial" font-size="13px" font-style="normal" font-weight="bold" text-decoration="none" x="110.273193359375" y="463.5">controller_message_event</text><path fill="none" stroke="#000000" d="M 268.5234375 463.5 L 104.5 463.5" stroke-miterlimit="10"/></g></g><g transform="translate(-34,-22) scale(1,1)"><rect fill="#C0C0C0" stroke="none" x="443" y="355" width="159" height="24" opacity="0.2"/></g><g transform="translate(-34,-22) scale(1,1)"><rect fill="#ffffff" stroke="none" x="436" y="348" width="159" height="24"/></g><g transform="translate(-34,-22) scale(1,1)"><path fill="none" stroke="#000000" d="M 436 348 L 595 348 L 595 372 L 436 372 L 436 348 Z Z" stroke-miterlimit="10"/></g><g transform="translate(-34,-22) scale(1,1)"><rect fill="#ffffff" stroke="none" x="436" y="348" width="159" height="24"/></g><g transform="translate(-34,-22) scale(1,1)"><path fill="none" stroke="#000000" d="M 436 348 L 595 348 L 595 372 L 436 372 L 436 348 Z Z" stroke-miterlimit="10"/></g><g transform="translate(-34,-22) scale(1,1)"><g><path fill="none" stroke="none"/><text fill="#000000" stroke="none" font-family="Arial" font-size="13px" font-style="normal" font-weight="bold" text-decoration="none" x="448.291015625" y="367.5">model_message_event</text><path fill="none" stroke="#000000" d="M 586.67626953125 367.5 L 444.32373046875 367.5" stroke-miterlimit="10"/></g></g><g transform="translate(-34,-22) scale(1,1)"><rect fill="#C0C0C0" stroke="none" x="435" y="275" width="171.58251953125" height="27" opacity="0.2"/></g><g transform="translate(-34,-22) scale(1,1)"><rect fill="#ffffff" stroke="none" x="428" y="268" width="171.58251953125" height="27"/></g><g transform="translate(-34,-22) scale(1,1)"><path fill="none" stroke="#000000" d="M 428 268 L 599.58251953125 268 L 599.58251953125 295 L 428 295 L 428 268 Z Z" stroke-miterlimit="10"/></g><g transform="translate(-34,-22) scale(1,1)"><rect fill="#ffffff" stroke="none" x="428" y="268" width="171.58251953125" height="27"/></g><g transform="translate(-34,-22) scale(1,1)"><path fill="none" stroke="#000000" d="M 428 268 L 599.58251953125 268 L 599.58251953125 295 L 428 295 L 428 268 Z Z" stroke-miterlimit="10"/></g><g transform="translate(-34,-22) scale(1,1)"><g><path fill="none" stroke="none"/><text fill="#000000" stroke="none" font-family="Arial" font-size="13px" font-style="normal" font-weight="bold" text-decoration="none" x="437.917724609375" y="287.5">simulator_message_event</text><path fill="none" stroke="#000000" d="M 595.08251953125 287.5 L 432.5 287.5" stroke-miterlimit="10"/></g></g><g transform="translate(-34,-22) scale(1,1)"><rect fill="#C0C0C0" stroke="none" x="771" y="315" width="159" height="24" opacity="0.2"/></g><g transform="translate(-34,-22) scale(1,1)"><rect fill="#ffffff" stroke="none" x="764" y="308" width="159" height="24"/></g><g transform="translate(-34,-22) scale(1,1)"><path fill="none" stroke="#000000" d="M 764 308 L 923 308 L 923 332 L 764 332 L 764 308 Z Z" stroke-miterlimit="10"/></g><g transform="translate(-34,-22) scale(1,1)"><rect fill="#ffffff" stroke="none" x="764" y="308" width="159" height="24"/></g><g transform="translate(-34,-22) scale(1,1)"><path fill="none" stroke="#000000" d="M 764 308 L 923 308 L 923 332 L 764 332 L 764 308 Z Z" stroke-miterlimit="10"/></g><g transform="translate(-34,-22) scale(1,1)"><g><path fill="none" stroke="none"/><text fill="#000000" stroke="none" font-family="Arial" font-size="13px" font-style="normal" font-weight="bold" text-decoration="none" x="776.291015625" y="327.5">model_message_event</text><path fill="none" stroke="#000000" d="M 914.67626953125 327.5 L 772.32373046875 327.5" stroke-miterlimit="10"/></g></g><g transform="translate(-34,-22) scale(1,1)"><rect fill="#C0C0C0" stroke="none" x="91" y="291" width="171.58251953125" height="27" opacity="0.2"/></g><g transform="translate(-34,-22) scale(1,1)"><rect fill="#ffffff" stroke="none" x="84" y="284" width="171.58251953125" height="27"/></g><g transform="translate(-34,-22) scale(1,1)"><path fill="none" stroke="#000000" d="M 84 284 L 255.58251953125 284 L 255.58251953125 311 L 84 311 L 84 284 Z Z" stroke-miterlimit="10"/></g><g transform="translate(-34,-22) scale(1,1)"><rect fill="#ffffff" stroke="none" x="84" y="284" width="171.58251953125" height="27"/></g><g transform="translate(-34,-22) scale(1,1)"><path fill="none" stroke="#000000" d="M 84 284 L 255.58251953125 284 L 255.58251953125 311 L 84 311 L 84 284 Z Z" stroke-miterlimit="10"/></g><g transform="translate(-34,-22) scale(1,1)"><g><path fill="none" stroke="none"/><text fill="#000000" stroke="none" font-family="Arial" font-size="13px" font-style="normal" font-weight="bold" text-decoration="none" x="93.917724609375" y="303.5">simulator_message_event</text><path fill="none" stroke="#000000" d="M 251.08251953125 303.5 L 88.5 303.5" stroke-miterlimit="10"/></g></g><g transform="translate(-34,-22) scale(1,1)"><path fill="none" stroke="#000000" d="M 552 109 L 684 248" stroke-miterlimit="10" stroke-dasharray="3"/></g><g transform="translate(-34,-22) scale(1,1)"><path fill="none" stroke="#000000" d="M 181 311 L 181 324 M 181 324 A 8 8 0 0 0 189 332 L 500 332 M 500 332 A 8 8 0 0 0 508 324 L 508 295" stroke-miterlimit="10"/></g><g transform="translate(-34,-22) scale(1,1)"><g><path fill="none" stroke="none"/><text fill="#000000" stroke="none" font-family="Arial" font-size="13px" font-style="normal" font-weight="normal" text-decoration="none" x="321" y="324">+shared</text></g></g><g transform="translate(-34,-22) scale(1,1)"><path fill="none" stroke="#000000" d="M 595 364 L 824 364 M 824 364 A 8 8 0 0 0 832 356 L 832 332" stroke-miterlimit="10"/></g><g transform="translate(-34,-22) scale(1,1)"><g><path fill="none" stroke="none"/><text fill="#000000" stroke="none" font-family="Arial" font-size="13px" font-style="normal" font-weight="normal" text-decoration="none" x="775" y="353">+shared</text></g></g></g></svg>