<svg version="1.1" xmlns="http://www.w3.org/2000/svg" xmlns:xlink="http://www.w3.org/1999/xlink" width="759" height="339"><defs/><g><g transform="translate(-30,-118) scale(1,1)"><path fill="#C0C0C0" stroke="none" d="M 165 195 L 256 195 Q 266 195 266 205 L 266 268 Q 266 278 256 278 L 165 278 Q 155 278 155 268 L 155 205 Q 155 195 165 195 Z" opacity="0.2"/></g><g transform="translate(-30,-118) scale(1,1)"><path fill="#ffffff" stroke="none" d="M 158 188 L 249 188 Q 259 188 259 198 L 259 261 Q 259 271 249 271 L 158 271 Q 148 271 148 261 L 148 198 Q 148 188 158 188 Z"/></g><g transform="translate(-30,-118) scale(1,1)"><path fill="none" stroke="#000000" d="M 158 188 L 249 188 Q 259 188 259 198 L 259 261 Q 259 271 249 271 L 158 271 Q 148 271 148 261 L 148 198 Q 148 188 158 188 Z" stroke-miterlimit="10"/></g><g transform="translate(-30,-118) scale(1,1)"><g><path fill="none" stroke="none"/><text fill="#000000" stroke="none" font-family="Arial" font-size="13px" font-style="normal" font-weight="bold" text-decoration="none" x="179.28369140625" y="207.5">Stopped</text></g></g><g transform="translate(-30,-118) scale(1,1)"><path fill="#C0C0C0" stroke="none" d="M 51 216.5 C 51 211.2532944 55.2532944 207 60.5 207 C 65.7467056 207 70 211.2532944 70 216.5 C 70 221.7467056 65.7467056 226 60.5 226 C 55.2532944 226 51 221.7467056 51 216.5 Z" opacity="0.2"/></g><g transform="translate(-30,-118) scale(1,1)"><path fill="#000000" stroke="none" d="M 44 209.5 C 44 204.2532944 48.2532944 200 53.5 200 C 58.7467056 200 63 204.2532944 63 209.5 C 63 214.7467056 58.7467056 219 53.5 219 C 48.2532944 219 44 214.7467056 44 209.5 Z"/></g><g transform="translate(-30,-118) scale(1,1)"><path fill="none" stroke="#000000" d="M 63 212 L 148 212" stroke-miterlimit="10"/></g><g transform="translate(-30,-118) scale(1,1)"><path fill="none" stroke="#000000" d="M 137.83732514237585 216.209517756016 L 148 212 L 137.83732514237585 207.790482243984" stroke-miterlimit="10"/></g><g transform="translate(-30,-118) scale(1,1)"><g><path fill="none" stroke="none"/><text fill="#000000" stroke="none" font-family="Arial" font-size="13px" font-style="normal" font-weight="normal" text-decoration="none" x="92" y="204">Start</text></g></g><g transform="translate(-30,-118) scale(1,1)"><path fill="#C0C0C0" stroke="none" d="M 413 195 L 548 195 Q 558 195 558 205 L 558 268 Q 558 278 548 278 L 413 278 Q 403 278 403 268 L 403 205 Q 403 195 413 195 Z" opacity="0.2"/></g><g transform="translate(-30,-118) scale(1,1)"><path fill="#ffffff" stroke="none" d="M 406 188 L 541 188 Q 551 188 551 198 L 551 261 Q 551 271 541 271 L 406 271 Q 396 271 396 261 L 396 198 Q 396 188 406 188 Z"/></g><g transform="translate(-30,-118) scale(1,1)"><path fill="none" stroke="#000000" d="M 406 188 L 541 188 Q 551 188 551 198 L 551 261 Q 551 271 541 271 L 406 271 Q 396 271 396 261 L 396 198 Q 396 188 406 188 Z" stroke-miterlimit="10"/></g><g transform="translate(-30,-118) scale(1,1)"><g><path fill="none" stroke="none"/><text fill="#000000" stroke="none" font-family="Arial" font-size="13px" font-style="normal" font-weight="bold" text-decoration="none" x="456.513671875" y="207.5">Setup</text></g></g><g transform="translate(-30,-118) scale(1,1)"><path fill="none" stroke="#000000" d="M 260 229 L 395 229" stroke-miterlimit="10"/></g><g transform="translate(-30,-118) scale(1,1)"><path fill="none" stroke="#000000" d="M 384.83732514237585 233.209517756016 L 395 229 L 384.83732514237585 224.790482243984" stroke-miterlimit="10"/></g><g transform="translate(-30,-118) scale(1,1)"><g><path fill="none" stroke="none"/><text fill="#000000" stroke="none" font-family="Arial" font-size="13px" font-style="normal" font-weight="normal" text-decoration="none" x="291" y="221">Setup Signal</text></g></g><g transform="translate(-30,-118) scale(1,1)"><path fill="#C0C0C0" stroke="none" d="M 645 187 L 776 187 Q 786 187 786 197 L 786 272 Q 786 282 776 282 L 645 282 Q 635 282 635 272 L 635 197 Q 635 187 645 187 Z" opacity="0.2"/></g><g transform="translate(-30,-118) scale(1,1)"><path fill="#ffffff" stroke="none" d="M 638 180 L 769 180 Q 779 180 779 190 L 779 265 Q 779 275 769 275 L 638 275 Q 628 275 628 265 L 628 190 Q 628 180 638 180 Z"/></g><g transform="translate(-30,-118) scale(1,1)"><path fill="none" stroke="#000000" d="M 638 180 L 769 180 Q 779 180 779 190 L 779 265 Q 779 275 769 275 L 638 275 Q 628 275 628 265 L 628 190 Q 628 180 638 180 Z" stroke-miterlimit="10"/></g><g transform="translate(-30,-118) scale(1,1)"><g><path fill="none" stroke="none"/><text fill="#000000" stroke="none" font-family="Arial" font-size="13px" font-style="normal" font-weight="bold" text-decoration="none" x="679.286865234375" y="199.5">Running</text></g></g><g transform="translate(-30,-118) scale(1,1)"><path fill="none" stroke="#000000" d="M 552 228 L 627 228" stroke-miterlimit="10"/></g><g transform="translate(-30,-118) scale(1,1)"><path fill="none" stroke="#000000" d="M 616.8373251423759 232.209517756016 L 627 228 L 616.8373251423758 223.790482243984" stroke-miterlimit="10"/></g><g transform="translate(-30,-118) scale(1,1)"><g><path fill="none" stroke="none"/><text fill="#000000" stroke="none" font-family="Arial" font-size="13px" font-style="normal" font-weight="normal" text-decoration="none" x="556" y="220">Start Signal</text></g></g><g transform="translate(-30,-118) scale(1,1)"><path fill="#C0C0C0" stroke="none" d="M 649 367 L 776 367 Q 786 367 786 377 L 786 444 Q 786 454 776 454 L 649 454 Q 639 454 639 444 L 639 377 Q 639 367 649 367 Z" opacity="0.2"/></g><g transform="translate(-30,-118) scale(1,1)"><path fill="#ffffff" stroke="none" d="M 642 360 L 769 360 Q 779 360 779 370 L 779 437 Q 779 447 769 447 L 642 447 Q 632 447 632 437 L 632 370 Q 632 360 642 360 Z"/></g><g transform="translate(-30,-118) scale(1,1)"><path fill="none" stroke="#000000" d="M 642 360 L 769 360 Q 779 360 779 370 L 779 437 Q 779 447 769 447 L 642 447 Q 632 447 632 437 L 632 370 Q 632 360 642 360 Z" stroke-miterlimit="10"/></g><g transform="translate(-30,-118) scale(1,1)"><g><path fill="none" stroke="none"/><text fill="#000000" stroke="none" font-family="Arial" font-size="13px" font-style="normal" font-weight="bold" text-decoration="none" x="683.45458984375" y="379.5">Paused</text></g></g><g transform="translate(-30,-118) scale(1,1)"><path fill="none" stroke="#000000" d="M 668 275 L 668 360" stroke-miterlimit="10"/></g><g transform="translate(-30,-118) scale(1,1)"><path fill="none" stroke="#000000" d="M 663.790482243984 349.83732514237585 L 668 360 L 672.209517756016 349.83732514237585" stroke-miterlimit="10"/></g><g transform="translate(-30,-118) scale(1,1)"><g><path fill="none" stroke="none"/><text fill="#000000" stroke="none" font-family="Arial" font-size="13px" font-style="normal" font-weight="normal" text-decoration="none" x="643" y="340">Pause Signal</text></g></g><g transform="translate(-30,-118) scale(1,1)"><path fill="none" stroke="#000000" d="M 700 180 L 700 136 M 700 136 A 8 8 0 0 0 692 128 L 216 128 M 216 128 A 8 8 0 0 0 208 136 L 208 188" stroke-miterlimit="10"/></g><g transform="translate(-30,-118) scale(1,1)"><path fill="none" stroke="#000000" d="M 203.790482243984 177.83732514237585 L 208 188 L 212.209517756016 177.83732514237585" stroke-miterlimit="10"/></g><g transform="translate(-30,-118) scale(1,1)"><g><path fill="none" stroke="none"/><text fill="#000000" stroke="none" font-family="Arial" font-size="13px" font-style="normal" font-weight="normal" text-decoration="none" x="420" y="150">Stop Signal</text></g></g><g transform="translate(-30,-118) scale(1,1)"><path fill="none" stroke="#000000" d="M 632 408 L 212 408 M 212 408 A 8 8 0 0 1 204 400 L 204 271" stroke-miterlimit="10"/></g><g transform="translate(-30,-118) scale(1,1)"><path fill="none" stroke="#000000" d="M 208.209517756016 281.16267485762415 L 204 271 L 199.790482243984 281.16267485762415" stroke-miterlimit="10"/></g><g transform="translate(-30,-118) scale(1,1)"><g><path fill="none" stroke="none"/><text fill="#000000" stroke="none" font-family="Arial" font-size="13px" font-style="normal" font-weight="normal" text-decoration="none" x="354" y="404">Stop Signal</text></g></g><g transform="translate(-30,-118) scale(1,1)"><path fill="none" stroke="#000000" d="M 744 360 L 744 275" stroke-miterlimit="10"/></g><g transform="translate(-30,-118) scale(1,1)"><path fill="none" stroke="#000000" d="M 748.209517756016 285.16267485762415 L 744 275 L 739.790482243984 285.16267485762415" stroke-miterlimit="10"/></g><g transform="translate(-30,-118) scale(1,1)"><g><path fill="none" stroke="none"/><text fill="#000000" stroke="none" font-family="Arial" font-size="13px" font-style="normal" font-weight="normal" text-decoration="none" x="676" y="305">Resume Signal</text></g></g><g transform="translate(-30,-118) scale(1,1)"><path fill="#C0C0C0" stroke="none" d="M 47 259.5 C 47 252.59644 52.59644 247 59.5 247 C 66.40356 247 72 252.59644 72 259.5 C 72 266.40356 66.40356 272 59.5 272 C 52.59644 272 47 266.40356 47 259.5 Z" opacity="0.2"/></g><g transform="translate(-30,-118) scale(1,1)"><path fill="none" stroke="#000000" d="M 40 252.5 C 40 245.59644 45.59644 240 52.5 240 C 59.40356 240 65 245.59644 65 252.5 C 65 259.40356 59.40356 265 52.5 265 C 45.59644 265 40 259.40356 40 252.5 Z" stroke-miterlimit="10"/></g><g transform="translate(-30,-118) scale(1,1)"><path fill="#000000" stroke="none" d="M 45 252.5 C 45 248.357864 48.357864 245 52.5 245 C 56.642136 245 60 248.357864 60 252.5 C 60 256.642136 56.642136 260 52.5 260 C 48.357864 260 45 256.642136 45 252.5 Z"/></g><g transform="translate(-30,-118) scale(1,1)"><path fill="none" stroke="#000000" d="M 148 252 L 65 252" stroke-miterlimit="10"/></g><g transform="translate(-30,-118) scale(1,1)"><path fill="none" stroke="#000000" d="M 75.16267485762415 247.790482243984 L 65 252 L 75.16267485762415 256.209517756016" stroke-miterlimit="10"/></g><g transform="translate(-30,-118) scale(1,1)"><g><path fill="none" stroke="none"/><text fill="#000000" stroke="none" font-family="Arial" font-size="13px" font-style="normal" font-weight="normal" text-decoration="none" x="94" y="274">End</text></g></g><g transform="translate(-30,-118) scale(1,1)"><path fill="none" stroke="#000000" d="M 472 271 L 472 300 M 472 300 A 8 8 0 0 1 464 308 L 212 308 M 212 308 A 8 8 0 0 1 204 300 L 204 271" stroke-miterlimit="10"/></g><g transform="translate(-30,-118) scale(1,1)"><path fill="none" stroke="#000000" d="M 208.209517756016 281.16267485762415 L 204 271 L 199.790482243984 281.16267485762415" stroke-miterlimit="10"/></g><g transform="translate(-30,-118) scale(1,1)"><g><path fill="none" stroke="none"/><text fill="#000000" stroke="none" font-family="Arial" font-size="13px" font-style="normal" font-weight="normal" text-decoration="none" x="304" y="330">Stop Signal</text></g></g></g></svg>